<?xml version="1.0" encoding="utf-8"?>
<!-- Generator: Adobe Illustrator 21.1.0, SVG Export Plug-In . SVG Version: 6.00 Build 0)  -->
<svg version="1.1" id="Laag_1" xmlns="http://www.w3.org/2000/svg" xmlns:xlink="http://www.w3.org/1999/xlink" x="0px" y="0px"
	 viewBox="0 0 190.7 190.7" style="enable-background:new 0 0 190.7 190.7;" xml:space="preserve">
<style type="text/css">
	.st0{fill:#030304;}
	.st1{fill:#FFFFFF;}
</style>
<path class="st0" d="M95.3,0L95.3,0c52.7,0,95.4,42.7,95.4,95.3v0c0,52.7-42.7,95.3-95.3,95.3h0C42.7,190.7,0,148,0,95.4v0
	C0,42.7,42.7,0,95.3,0z"/>
<g>
	<path class="st1" d="M129,120.1v13.8c0,1.2-0.8,2-2,2H81.6c-1.2,0-2-0.8-2-2v-15.8H127C128.2,118.5,129,119.3,129,120.1z"/>
	<g>
		<path class="st1" d="M102.2,86.4H61.7v30c0,1.2,0.8,2,2,2h15.8v-14.2h22.3c1.2,0,2-0.8,2-2V88.5C104.3,87.2,103.5,86.4,102.2,86.4
			z"/>
		<path class="st1" d="M121.7,54.8H64.1c-1.2,0-2,0.8-2,2v15.8h59.6c1.2,0,2-0.8,2-2V56.8C123.3,55.6,122.5,54.8,121.7,54.8z"/>
	</g>
</g>
</svg>
